<svg width="80" height="80" viewBox="0 0 80 80" fill="none" xmlns="http://www.w3.org/2000/svg">
<path d="M1 40L39.9999 1.00012L78.9999 40L39.9999 79L1 40Z" stroke="#1A1B1C"/>
<path d="M39.9999 1L78.9999 39.9999L39.9999 78.9998L1 39.9999L20.5 20.5" stroke="#1A1B1C"/>
<path d="M40.3525 69.8387L40.0107 69.4969L40 69.5067L39.9902 69.4969L39.6465 69.8397L37.5986 67.7919L37.9521 67.4384L37.2656 66.7518L36.9121 67.1053L34.8535 65.0467L35.207 64.6932L34.5205 64.0077L34.167 64.3602L32.1084 62.3016L32.4619 61.9491L31.7764 61.2626L31.4229 61.6161L29.3643 59.5575L29.7178 59.204L29.0312 58.5175L28.6777 58.871L26.6191 56.8124L26.9727 56.4589L26.2861 55.7723L25.9326 56.1259L23.874 54.0673L24.2275 53.7137L23.541 53.0282L23.1875 53.3807L21.1289 51.3221L21.4824 50.9696L20.7969 50.2831L20.4434 50.6366L18.3848 48.578L18.7383 48.2245L18.0518 47.538L17.6982 47.8915L15.6396 45.8329L15.9932 45.4794L15.3066 44.7928L14.9531 45.1464L12.8945 43.0878L13.248 42.7343L12.5615 42.0487L12.208 42.4012L10.1602 40.3534L10.5029 40.0106L10.4922 39.9999L10.5029 39.9901L10.1602 39.6464L12.208 37.5985L12.5615 37.952L13.248 37.2655L12.8945 36.912L14.9531 34.8534L15.3066 35.2069L15.9932 34.5204L15.6396 34.1669L17.6982 32.1083L18.0518 32.4618L18.7383 31.7762L18.3838 31.4218L20.4424 29.3632L20.7969 29.7177L21.4824 29.0311L21.1289 28.6776L23.1875 26.619L23.541 26.9725L24.2275 26.286L23.874 25.9325L25.9326 23.8739L26.2861 24.2274L26.9727 23.5409L26.6191 23.1874L28.6777 21.1288L29.0312 21.4823L29.7178 20.7968L29.3633 20.4423L31.4219 18.3837L31.7764 18.7382L32.4619 18.0516L32.1084 17.6981L34.167 15.6395L34.5205 15.993L35.207 15.3065L34.8535 14.953L36.9121 12.8944L37.2656 13.2479L37.9521 12.5614L37.5986 12.2079L39.6465 10.16L39.9902 10.5028L40 10.4921L40.0107 10.5028L40.3535 10.16L42.4014 12.2079L42.0488 12.5614L42.7344 13.2479L43.0879 12.8944L45.1465 14.953L44.793 15.3065L45.4795 15.993L45.833 15.6395L47.8916 17.6981L47.5381 18.0516L48.2246 18.7382L48.5781 18.3846L50.6367 20.4432L50.2832 20.7968L50.9697 21.4823L51.3223 21.1288L53.3809 23.1874L53.0283 23.5409L53.7139 24.2274L54.0674 23.8739L56.126 25.9325L55.7725 26.286L56.459 26.9725L56.8125 26.619L58.8711 28.6776L58.5176 29.0311L59.2041 29.7177L59.5576 29.3641L61.6162 31.4227L61.2627 31.7762L61.9492 32.4618L62.3018 32.1083L64.3603 34.1669L64.0078 34.5204L64.6934 35.2069L65.0469 34.8534L67.1055 36.912L66.7519 37.2655L67.4385 37.952L67.792 37.5985L69.8398 39.6464L69.4971 39.9901L69.5068 39.9999L69.4971 40.0106L69.8398 40.3534L67.791 42.4012L67.4385 42.0487L66.7519 42.7343L67.1055 43.0878L65.0469 45.1464L64.6934 44.7928L64.0078 45.4794L64.3603 45.8319L62.3018 47.8905L61.9492 47.538L61.2627 48.2245L61.6152 48.577L59.5566 50.6356L59.2041 50.2831L58.5176 50.9696L58.8701 51.3221L56.8115 53.3807L56.459 53.0282L55.7725 53.7137L56.126 54.0673L54.0674 56.1259L53.7139 55.7723L53.0283 56.4589L53.3809 56.8114L51.3223 58.87L50.9697 58.5175L50.2832 59.204L50.6357 59.5565L48.5771 61.6151L48.2246 61.2626L47.5381 61.9491L47.8906 62.3016L45.832 64.3602L45.4795 64.0077L44.793 64.6932L45.1465 65.0467L43.0879 67.1053L42.7344 66.7518L42.0488 67.4384L42.4014 67.7909L40.3525 69.8387Z" stroke="#1A1B1C" stroke-dasharray="1 3"/>
<path d="M44.5161 40L36.9677 35.642L36.9677 44.3581L44.5161 40Z" fill="#1A1B1C"/>
</svg>
